<?xml version="1.0" encoding="UTF-8"?>
<svg width="90px" height="43px" viewBox="0 0 90 43" version="1.1" xmlns="http://www.w3.org/2000/svg" xmlns:xlink="http://www.w3.org/1999/xlink">
    <title>65F0D6F0-3389-4ED1-BBF1-1CD86E5298BE</title>
    <defs>
        <linearGradient x1="-0.149873498%" y1="51.005362%" x2="100.588074%" y2="49.6531195%" id="linearGradient-1">
            <stop stop-color="#5DA9DD" offset="0%"></stop>
            <stop stop-color="#5DA8DC" offset="0.4041731%"></stop>
            <stop stop-color="#3B83C1" offset="23.44%"></stop>
            <stop stop-color="#1C6CAF" offset="45.56%"></stop>
            <stop stop-color="#005DA4" offset="66.26%"></stop>
            <stop stop-color="#00559E" offset="84.99%"></stop>
            <stop stop-color="#00529C" offset="100%"></stop>
        </linearGradient>
        <linearGradient x1="0.203294473%" y1="50.5094178%" x2="100.000483%" y2="49.0753695%" id="linearGradient-2">
            <stop stop-color="#5DA9DD" offset="0%"></stop>
            <stop stop-color="#5DA8DC" offset="0.4041731%"></stop>
            <stop stop-color="#3B83C1" offset="23.44%"></stop>
            <stop stop-color="#1C6CAF" offset="45.56%"></stop>
            <stop stop-color="#005DA4" offset="66.26%"></stop>
            <stop stop-color="#00559E" offset="84.99%"></stop>
            <stop stop-color="#00529C" offset="100%"></stop>
        </linearGradient>
        <linearGradient x1="-0.673559439%" y1="51.1596529%" x2="100.821316%" y2="49.2325164%" id="linearGradient-3">
            <stop stop-color="#5DA9DD" offset="0%"></stop>
            <stop stop-color="#5DA8DC" offset="0.4041731%"></stop>
            <stop stop-color="#3B83C1" offset="23.44%"></stop>
            <stop stop-color="#1C6CAF" offset="45.56%"></stop>
            <stop stop-color="#005DA4" offset="66.26%"></stop>
            <stop stop-color="#00559E" offset="84.99%"></stop>
            <stop stop-color="#00529C" offset="100%"></stop>
        </linearGradient>
        <linearGradient x1="1.01984187%" y1="45.7537523%" x2="97.3300584%" y2="50.8656387%" id="linearGradient-4">
            <stop stop-color="#75BEE9" offset="0%"></stop>
            <stop stop-color="#65ADDF" offset="12.72%"></stop>
            <stop stop-color="#4A93CF" offset="37.81%"></stop>
            <stop stop-color="#3482C4" offset="61.45%"></stop>
            <stop stop-color="#2378BE" offset="82.85%"></stop>
            <stop stop-color="#1B75BC" offset="100%"></stop>
        </linearGradient>
        <linearGradient x1="-1.67977006e-14%" y1="49.999867%" x2="100%" y2="49.999867%" id="linearGradient-5">
            <stop stop-color="#75BEE9" offset="0%"></stop>
            <stop stop-color="#65ADDF" offset="12.72%"></stop>
            <stop stop-color="#4A93CF" offset="37.81%"></stop>
            <stop stop-color="#3482C4" offset="61.45%"></stop>
            <stop stop-color="#2378BE" offset="82.85%"></stop>
            <stop stop-color="#1B75BC" offset="100%"></stop>
        </linearGradient>
    </defs>
    <g id="Page-1" stroke="none" stroke-width="1" fill="none" fill-rule="evenodd">
        <g id="1-2-FE-TEST-1366-Filters" transform="translate(-20.000000, -4.000000)">
            <g id="Logo_1366" transform="translate(20.000000, 4.000000)">
                <g id="Group">
                    <g transform="translate(10.819355, 0.000000)" id="Path">
                        <path d="M40.5309677,16.0617647 C40.5309677,16.0617647 23.22,13.9960784 20.1822581,11.4245098 C20.1822581,11.4245098 20.4735484,9.65392157 20.4319355,9.06372549 C20.4319355,9.06372549 38.6583871,12.8156863 45.7741935,10.1598039 C45.7741935,10.2019608 42.57,14.5441176 40.5309677,16.0617647 Z" fill="#000F47"></path>
                        <path d="M29.1706452,22.3009804 C29.1706452,22.3009804 20.3487097,18.1696078 18.8922581,15.5558824 C18.8922581,15.5558824 19.5996774,13.8696078 19.766129,12.6892157 C19.766129,12.6892157 31.1680645,18.8019608 36.4529032,18.8862745 C36.4529032,18.8862745 30.9183871,22.0901961 29.1706452,22.3009804 Z" fill="#000F47"></path>
                        <path d="M19.1419355,24.8303922 C19.1419355,24.8303922 16.8532258,20.6990196 16.7283871,19.0970588 C16.7283871,19.0970588 18.2680645,17.3264706 18.3512903,16.7784314 C18.3512903,16.7784314 21.1809677,23.3970588 27.5893548,23.354902 C27.5893548,23.354902 21.1809677,25.2519608 19.1419355,24.8303922 Z" fill="#000F47"></path>
                        <path d="M8.9883871,20.6990196 C8.9883871,20.6990196 16.2290323,16.0196078 18.5593548,11.5931373 C18.5593548,11.5931373 15.063871,14.3754902 12.5670968,14.8392157 L8.9883871,20.6990196 Z" fill="#000F47"></path>
                        <path d="M19.766129,12.6892157 C19.5996774,13.5323529 19.1419355,15.1343137 18.8922581,15.5558824 C21.4722581,16.1882353 30.543871,18.6754902 40.6141935,16.0617647 C42.7780645,14.2911765 44.5258065,12.1411765 45.7741935,10.2019608 C38.7416129,13.6166667 33.0822581,13.3637255 28.2967742,13.6166667 C23.1783871,13.6588235 20.8896774,12.9843137 19.766129,12.6892157 Z" fill="url(#linearGradient-1)"></path>
                        <path d="M16.7283871,19.0970588 C18.2680645,19.8137255 23.5529032,21.8794118 29.1706452,22.3009804 C31.6674194,21.5843137 34.2890323,20.0666667 36.4529032,18.8862745 C27.8390323,19.1813725 20.0574194,17.2843137 18.3512903,16.7784314 C18.06,17.4107843 17.186129,18.6333333 16.7283871,19.0970588 Z" fill="url(#linearGradient-2)"></path>
                        <path d="M44.1512903,1.34901961 C44.1512903,1.34901961 44.6506452,2.27647059 45.5245161,3.45686275 C39.7819355,6.19705882 31.2512903,9.69607843 20.4319355,9.10588235 C20.4319355,10.2441176 20.3487097,11.0029412 20.1822581,11.4666667 C21.5970968,11.8460784 32.4580645,14.2068627 47.8132258,6.23921569 C48.5206452,6.95588235 49.3112903,7.58823529 50.1019355,8.00980392 L52.8483871,0 L44.1512903,1.34901961 Z" fill="url(#linearGradient-3)"></path>
                        <path d="M12.5670968,14.7970588 C9.11322581,15.7666667 6.07548387,15.0921569 6.07548387,15.0921569 C4.20290323,13.8696078 2.91290323,15.7245098 2.91290323,15.7245098 C-0.582580645,16.2303922 0.291290323,18.5068627 0.291290323,18.5068627 L0.624193548,18.9284314 C1.04032258,17.495098 3.87,18.1696078 3.87,18.1696078 C6.07548387,19.2235294 7.74,20.0245098 8.9883871,20.6990196 C10.7777419,19.0970588 11.9429032,17.0735294 12.5670968,14.7970588 Z" fill="url(#linearGradient-4)"></path>
                        <path d="M15.8129032,20.5303922 L15.8129032,20.5303922 L14.5645161,19.9823529 C14.6477419,19.8980392 14.7309677,19.7715686 14.8558065,19.6872549 C16.1458065,18.1696078 17.5606452,15.6823529 18.5593548,11.5931373 C16.353871,13.3215686 14.3148387,14.1647059 14.3148387,14.1647059 C14.2732258,14.1647059 14.2732258,14.2068627 14.2316129,14.2068627 C13.5658065,16.904902 12.1925806,19.35 10.1119355,21.2470588 C10.5696774,21.4578431 11.2354839,21.7529412 11.5267742,21.9215686 C11.5267742,21.9215686 12.8167742,22.6803922 13.5658065,22.9754902 C15.4383871,23.8607843 18.933871,24.8303922 18.933871,24.8303922 C21.4306452,25.3362745 27.7141935,23.354902 27.7141935,23.354902 C23.3864516,23.2284314 16.7283871,20.8676471 15.8129032,20.5303922 Z" fill="url(#linearGradient-5)"></path>
                    </g>
                    <g transform="translate(32.874194, 27.401961)" fill="#1B75BC" stroke="#1D75BC" stroke-width="0.5">
                        <polygon id="Path" points="0.208064516 0.46372549 5.82580645 0.46372549 5.82580645 1.60196078 1.58129032 1.60196078 1.58129032 5.14313725 5.53451613 5.14313725 5.53451613 6.28137255 1.58129032 6.28137255 1.58129032 11.0872549 0.208064516 11.0872549"></polygon>
                        <path d="M8.23935484,7.75686275 L7.15741935,11.0872549 L5.74258065,11.0872549 L9.32129032,0.505882353 L10.9441935,0.505882353 L14.5229032,11.0872549 L13.0664516,11.0872549 L11.9429032,7.75686275 L8.23935484,7.75686275 Z M11.6932258,6.66078431 L10.6529032,3.6254902 C10.4032258,2.95098039 10.2783871,2.31862745 10.1119355,1.68627451 L10.0703226,1.68627451 C9.90387097,2.31862745 9.77903226,2.95098039 9.52935484,3.6254902 L8.48903226,6.70294118 L11.6932258,6.70294118 L11.6932258,6.66078431 L11.6932258,6.66078431 Z" id="Shape" fill-rule="nonzero"></path>
                        <path d="M16.0625806,0.46372549 L17.4358065,0.46372549 L17.4358065,9.90686275 L21.8883871,9.90686275 L21.8883871,11.045098 L16.0625806,11.045098 C16.0625806,11.045098 16.0625806,0.46372549 16.0625806,0.46372549 Z" id="Path"></path>
                        <path d="M30.086129,10.75 C29.5867742,11.0029412 28.5880645,11.2558824 27.3396774,11.2558824 C24.3851613,11.2558824 22.1796774,9.35882353 22.1796774,5.85980392 C22.1796774,2.52941176 24.3851613,0.295098039 27.6309677,0.295098039 C28.9209677,0.295098039 29.7532258,0.590196078 30.1277419,0.758823529 L29.7948387,1.85490196 C29.2954839,1.60196078 28.5464516,1.43333333 27.7141935,1.43333333 C25.2590323,1.43333333 23.636129,3.03529412 23.636129,5.81764706 C23.636129,8.43137255 25.0925806,10.0754902 27.6309677,10.0754902 C28.4632258,10.0754902 29.2954839,9.90686275 29.8364516,9.65392157 L30.086129,10.75 Z" id="Path"></path>
                        <path d="M40.406129,5.64901961 C40.406129,9.2745098 38.2006452,11.2137255 35.5374194,11.2137255 C32.7493548,11.2137255 30.8351613,9.02156863 30.8351613,5.81764706 C30.8351613,2.44509804 32.8741935,0.252941176 35.6622581,0.252941176 C38.5751613,0.295098039 40.406129,2.4872549 40.406129,5.64901961 Z M32.2916129,5.81764706 C32.2916129,8.09411765 33.4983871,10.1176471 35.6622581,10.1176471 C37.7845161,10.1176471 39.0329032,8.13627451 39.0329032,5.73333333 C39.0329032,3.6254902 37.9509677,1.39117647 35.703871,1.39117647 C33.4151613,1.39117647 32.2916129,3.49901961 32.2916129,5.81764706 Z" id="Shape" fill-rule="nonzero"></path>
                        <path d="M42.153871,11.0872549 L42.153871,0.46372549 L43.6519355,0.46372549 L46.9809677,5.81764706 C47.73,7.04019608 48.3541935,8.17843137 48.8535484,9.2745098 L48.8951613,9.2745098 C48.7703226,7.84117647 48.7287097,6.57647059 48.7287097,4.93235294 L48.7287097,0.46372549 L50.0187097,0.46372549 L50.0187097,11.045098 L48.6454839,11.045098 L45.3164516,5.64901961 C44.5674194,4.46862745 43.9016129,3.24607843 43.3606452,2.10784314 L43.3190323,2.10784314 C43.4022581,3.45686275 43.4022581,4.72156863 43.4022581,6.49215686 L43.4022581,11.0029412 L42.153871,11.0029412 L42.153871,11.0872549 L42.153871,11.0872549 Z" id="Path"></path>
                    </g>
                    <path d="M8.11451613,37.8568627 C7.61516129,38.1098039 6.53322581,38.4470588 5.16,38.4470588 C2.03903226,38.4892157 0,36.3392157 0,33.1352941 C0,29.9313725 2.16387097,27.5705882 5.53451613,27.5705882 C6.65806452,27.5705882 7.61516129,27.8656863 8.15612903,28.1186275 L7.74,29.5519608 C7.28225806,29.2990196 6.57483871,29.0460784 5.57612903,29.0460784 C3.20419355,29.0460784 1.91419355,30.8588235 1.91419355,33.0088235 C1.91419355,35.4117647 3.45387097,36.9294118 5.49290323,36.9294118 C6.57483871,36.9294118 7.28225806,36.6764706 7.7816129,36.4235294 L8.11451613,37.8568627 Z" id="Path" fill="#000F47"></path>
                    <path d="M12.4006452,24.8303922 C12.4006452,25.4627451 11.9429032,26.0107843 11.193871,26.0107843 C10.5280645,26.0107843 10.0703226,25.504902 10.0703226,24.8303922 C10.0703226,24.1980392 10.5280645,23.65 11.2354839,23.65 C11.9429032,23.65 12.4006452,24.1558824 12.4006452,24.8303922 Z" id="Path" fill="#000F47"></path>
                    <rect id="Rectangle" fill="#000F47" x="10.32" y="27.7813725" width="1.87258065" height="10.454902"></rect>
                    <path d="M17.5606452,25.2519608 L17.5606452,27.7813725 L20.2654839,27.7813725 L20.2654839,29.2147059 L17.5606452,29.2147059 L17.5606452,34.8637255 C17.5606452,36.1705882 17.9351613,36.8872549 18.9754839,36.8872549 C19.4748387,36.8872549 19.8077419,36.845098 20.0574194,36.7607843 L20.1406452,38.1941176 C19.766129,38.3205882 19.1835484,38.4470588 18.476129,38.4470588 C17.6022581,38.4470588 16.8948387,38.1519608 16.4370968,37.6460784 C15.9377419,37.0558824 15.7296774,36.1284314 15.7296774,34.9058824 L15.7296774,29.2147059 L14.1483871,29.2147059 L14.1483871,27.7813725 L15.7712903,27.7813725 L15.7712903,25.8421569 L17.5606452,25.2519608 Z" id="Path" fill="#000F47"></path>
                    <path d="M23.2616129,27.7813725 L25.5087097,33.9784314 C25.7583871,34.6529412 26.0080645,35.4960784 26.1745161,36.1284314 L26.216129,36.1284314 C26.4241935,35.4960784 26.6322581,34.695098 26.8819355,33.9362745 L28.9209677,27.7813725 L30.9183871,27.7813725 L28.0887097,35.2431373 C26.7570968,38.8264706 25.8416129,40.6392157 24.5516129,41.777451 C23.5945161,42.5784314 22.3045161,42.9156863 21.8051613,43 L21.7635484,41.4401961 C22.2212903,41.2715686 22.8454839,40.9764706 23.4280645,40.5127451 C23.9274194,40.0911765 24.5516129,39.3745098 25.0093548,38.404902 C25.0925806,38.1941176 25.1758065,38.0676471 25.1758065,37.9411765 C25.1758065,37.8147059 25.1341935,37.6882353 25.0093548,37.4352941 L21.2225806,27.7813725 L23.2616129,27.7813725 Z" id="Path" fill="#000F47"></path>
                </g>
                <path d="M90,26.875 C90,28.2711039 88.9388795,29.3181818 87.5806452,29.3181818 C86.2224109,29.3181818 85.1612903,28.2274756 85.1612903,26.875 C85.1612903,25.5225244 86.2224109,24.4318182 87.5806452,24.4318182 C88.9388795,24.4318182 90,25.5225244 90,26.875 Z M85.713073,26.875 C85.713073,27.9657062 86.4770798,28.7946429 87.5382003,28.7946429 C88.5568761,28.7946429 89.3208829,27.9220779 89.3208829,26.875 C89.3208829,25.7842938 88.5568761,24.9117289 87.4957555,24.9117289 C86.5195246,24.9553571 85.713073,25.8279221 85.713073,26.875 Z M87.1986418,28.1402192 L86.6468591,28.1402192 L86.6468591,25.6970373 C86.8590832,25.6534091 87.1561969,25.6097808 87.5382003,25.6097808 C88.0050934,25.6097808 88.1748727,25.6970373 88.344652,25.7842938 C88.4719864,25.8715503 88.5568761,26.0896916 88.5568761,26.3078328 C88.5568761,26.5696023 88.344652,26.7877435 88.0475382,26.875 L88.0475382,26.9186282 C88.2597623,27.0058847 88.3870968,27.1803977 88.4719864,27.5294237 C88.5568761,27.8784497 88.5993209,28.0529627 88.6417657,28.1402192 L88.0475382,28.1402192 C87.9626486,28.0529627 87.9202037,27.8348214 87.8777589,27.5294237 C87.8353141,27.2676542 87.7079796,27.1367695 87.3684211,27.1367695 L87.1137521,27.1367695 L87.1137521,28.1402192 L87.1986418,28.1402192 Z M87.1986418,26.7877435 L87.4533107,26.7877435 C87.7504244,26.7877435 88.0050934,26.700487 88.0050934,26.4387175 C88.0050934,26.2205763 87.8353141,26.0896916 87.4957555,26.0896916 C87.3684211,26.0896916 87.2410866,26.0896916 87.1986418,26.1333198 L87.1986418,26.7877435 L87.1986418,26.7877435 Z" id="Shape" fill="#424142" fill-rule="nonzero"></path>
            </g>
        </g>
    </g>
</svg>